<?xml version="1.0" encoding="UTF-8"?>
<svg
  width="1280"
  height="720"
  viewBox="0 0 1280 720"
  fill="none"
  xmlns="http://www.w3.org/2000/svg"
  role="img"
  aria-labelledby="muParkLogoTitle"
>
  <title id="muParkLogoTitle">Mu Park parking and cityscape logo</title>
  <rect width="1280" height="720" fill="#f3f5f9" />

  <defs>
    <linearGradient id="carGrad" x1="0" y1="0" x2="1" y2="1">
      <stop offset="0%" stop-color="#1a8ef0" />
      <stop offset="100%" stop-color="#03b1ff" />
    </linearGradient>
    <linearGradient id="carRoof" x1="0" y1="0" x2="1" y2="1">
      <stop offset="0%" stop-color="#7de4ff" />
      <stop offset="100%" stop-color="#4fb8ff" />
    </linearGradient>
    <linearGradient id="cityGrad" x1="0" y1="0" x2="0" y2="1">
      <stop offset="0%" stop-color="#0f5fa9" />
      <stop offset="100%" stop-color="#1c8ef0" />
    </linearGradient>
  </defs>

  <g>
    <rect x="170" y="270" width="80" height="120" rx="24" fill="#17a353" />
    <text
      x="210"
      y="350"
      text-anchor="middle"
      fill="#fff"
      font-size="52"
      font-weight="700"
      font-family="Geist, 'Segoe UI', sans-serif"
    >
      P
    </text>
    <path
      d="M210 250C220 240 240 240 250 250"
      stroke="#f6b23c"
      stroke-width="12"
      stroke-linecap="round"
      fill="none"
    />
    <path
      d="M200 230C215 210 245 210 260 230"
      stroke="#f6b23c"
      stroke-width="10"
      stroke-linecap="round"
      fill="none"
    />
  </g>

  <g>
    <rect x="220" y="380" width="300" height="110" rx="45" fill="url(#carGrad)" />
    <rect x="270" y="330" width="200" height="80" rx="32" fill="url(#carRoof)" />
    <rect
      x="290"
      y="350"
      width="150"
      height="60"
      rx="30"
      fill="rgba(255, 255, 255, 0.8)"
      stroke="rgba(255, 255, 255, 0.8)"
      stroke-width="3"
    />
    <circle cx="310" cy="500" r="30" fill="#0d47a1" />
    <circle cx="470" cy="500" r="30" fill="#0d47a1" />
    <circle cx="310" cy="500" r="18" fill="#fff" />
    <circle cx="470" cy="500" r="18" fill="#fff" />
  </g>

  <g>
    <rect x="520" y="210" width="90" height="270" rx="22" fill="#1c8ef0" />
    <rect x="640" y="180" width="75" height="300" rx="18" fill="#0f5fa9" />
    <rect x="730" y="240" width="70" height="240" rx="16" fill="#2c88e3" />
    <rect x="820" y="220" width="60" height="260" rx="14" fill="#0c68ab" />
    <rect x="900" y="250" width="55" height="220" rx="14" fill="#198f58" />
    <rect x="980" y="260" width="45" height="210" rx="12" fill="#0c5a9e" />
    <rect x="870" y="320" width="190" height="110" rx="24" fill="url(#cityGrad)" />
    <path
      d="M860 320H1060C1040 280 930 260 860 320Z"
      fill="#0f5fa9"
      opacity="0.7"
    />
    <path
      d="M880 320H940V400H880V320Z"
      fill="#f3f5f9"
      opacity="0.5"
    />
  </g>

  <path
    d="M250 500C330 460 460 520 560 500C640 485 720 520 840 500C940 480 1020 520 1100 500L1100 560H180V520C200 510 220 510 250 500Z"
    fill="#2ba4d7"
  />
  <path
    d="M260 530C340 490 460 550 560 530C640 515 720 550 840 530C940 510 1030 550 1120 530"
    stroke="#9eeaf2"
    stroke-width="12"
    stroke-linecap="round"
    fill="none"
  />

  <path d="M700 450L740 380L780 450H700Z" fill="#fff" stroke="#0f5fa9" stroke-width="6" />
  <path d="M740 450V360" stroke="#0f5fa9" stroke-width="6" />

  <path
    d="M860 200C900 170 960 170 1000 200"
    stroke="#0ba15c"
    stroke-width="16"
    stroke-linecap="round"
    fill="none"
  />
  <path
    d="M840 220C900 180 1000 180 1060 220"
    stroke="#0ba15c"
    stroke-width="12"
    stroke-linecap="round"
    fill="none"
  />

  <text
    x="440"
    y="660"
    font-family="Geist, 'Segoe UI', sans-serif"
    font-weight="700"
    font-size="98"
  >
    <tspan x="440" fill="#198843">
      MU
    </tspan>
    <tspan x="560" fill="#0d4ea8">
      PARK
    </tspan>
  </text>
</svg>
